<svg width="1600" height="900" xmlns="http://www.w3.org/2000/svg">
  <rect width="1600" height="900" fill="#0F172A"/>
  <rect x="80" y="80" width="1440" height="740" rx="16" fill="rgba(30,41,59,0.5)" stroke="rgba(255,255,255,0.1)" stroke-width="2"/>
  <rect x="120" y="120" width="200" height="160" rx="8" fill="rgba(34,197,94,0.3)" stroke="rgba(34,197,94,0.5)" stroke-width="2"/>
  <rect x="360" y="120" width="200" height="160" rx="8" fill="rgba(245,158,11,0.3)" stroke="rgba(245,158,11,0.5)" stroke-width="2"/>
  <rect x="600" y="120" width="200" height="160" rx="8" fill="rgba(239,68,68,0.3)" stroke="rgba(239,68,68,0.5)" stroke-width="2"/>
  <rect x="840" y="120" width="200" height="160" rx="8" fill="rgba(34,197,94,0.3)" stroke="rgba(34,197,94,0.5)" stroke-width="2"/>
  <rect x="1080" y="120" width="200" height="160" rx="8" fill="rgba(245,158,11,0.3)" stroke="rgba(245,158,11,0.5)" stroke-width="2"/>
  <rect x="1320" y="120" width="200" height="160" rx="8" fill="rgba(34,197,94,0.3)" stroke="rgba(34,197,94,0.5)" stroke-width="2"/>
  <rect x="120" y="320" width="200" height="160" rx="8" fill="rgba(245,158,11,0.3)" stroke="rgba(245,158,11,0.5)" stroke-width="2"/>
  <rect x="360" y="320" width="200" height="160" rx="8" fill="rgba(239,68,68,0.3)" stroke="rgba(239,68,68,0.5)" stroke-width="2"/>
  <rect x="600" y="320" width="200" height="160" rx="8" fill="rgba(34,197,94,0.3)" stroke="rgba(34,197,94,0.5)" stroke-width="2"/>
  <rect x="840" y="320" width="200" height="160" rx="8" fill="rgba(245,158,11,0.3)" stroke="rgba(245,158,11,0.5)" stroke-width="2"/>
  <rect x="1080" y="320" width="200" height="160" rx="8" fill="rgba(239,68,68,0.3)" stroke="rgba(239,68,68,0.5)" stroke-width="2"/>
  <rect x="1320" y="320" width="200" height="160" rx="8" fill="rgba(34,197,94,0.3)" stroke="rgba(34,197,94,0.5)" stroke-width="2"/>
  <rect x="120" y="520" width="200" height="160" rx="8" fill="rgba(34,197,94,0.3)" stroke="rgba(34,197,94,0.5)" stroke-width="2"/>
  <rect x="360" y="520" width="200" height="160" rx="8" fill="rgba(245,158,11,0.3)" stroke="rgba(245,158,11,0.5)" stroke-width="2"/>
  <rect x="600" y="520" width="200" height="160" rx="8" fill="rgba(239,68,68,0.3)" stroke="rgba(239,68,68,0.5)" stroke-width="2"/>
  <rect x="840" y="520" width="200" height="160" rx="8" fill="rgba(34,197,94,0.3)" stroke="rgba(34,197,94,0.5)" stroke-width="2"/>
  <rect x="1080" y="520" width="200" height="160" rx="8" fill="rgba(245,158,11,0.3)" stroke="rgba(245,158,11,0.5)" stroke-width="2"/>
  <rect x="1320" y="520" width="200" height="160" rx="8" fill="rgba(34,197,94,0.3)" stroke="rgba(34,197,94,0.5)" stroke-width="2"/>
  <text x="800" y="30" font-family="Arial" font-size="24" fill="rgba(255,255,255,0.7)" text-anchor="middle">Risk Overview & Heat-Map</text>
</svg>

