<svg width="1600" height="900" xmlns="http://www.w3.org/2000/svg">
  <rect width="1600" height="900" fill="#0F172A"/>
  <rect x="80" y="80" width="700" height="740" rx="16" fill="rgba(30,41,59,0.5)" stroke="rgba(255,255,255,0.1)" stroke-width="2"/>
  <polyline points="120,700 200,600 280,550 360,500 440,450 520,400 600,380 680,350 760,320" fill="none" stroke="rgba(59,130,246,0.8)" stroke-width="4"/>
  <polyline points="120,700 200,650 280,600 360,550 440,500 520,450 600,400 680,380 760,360" fill="none" stroke="rgba(16,185,129,0.8)" stroke-width="4"/>
  <rect x="820" y="80" width="700" height="740" rx="16" fill="rgba(30,41,59,0.5)" stroke="rgba(255,255,255,0.1)" stroke-width="2"/>
  <rect x="860" y="120" width="620" height="80" rx="8" fill="rgba(139,92,246,0.2)"/>
  <rect x="860" y="240" width="620" height="80" rx="8" fill="rgba(16,185,129,0.2)"/>
  <rect x="860" y="360" width="620" height="80" rx="8" fill="rgba(245,158,11,0.2)"/>
  <rect x="860" y="480" width="620" height="80" rx="8" fill="rgba(239,68,68,0.2)"/>
  <rect x="860" y="600" width="620" height="80" rx="8" fill="rgba(59,130,246,0.2)"/>
  <text x="800" y="30" font-family="Arial" font-size="24" fill="rgba(255,255,255,0.7)" text-anchor="middle">Trends & Analytics</text>
</svg>

